<?xml version="1.0" encoding="utf-8"?>
<!-- Generator: Adobe Illustrator 23.0.2, SVG Export Plug-In . SVG Version: 6.00 Build 0)  -->
<svg version="1.1" id="Camada_1" xmlns="http://www.w3.org/2000/svg" xmlns:xlink="http://www.w3.org/1999/xlink" x="0px" y="0px"
	 viewBox="0 0 150 38" style="enable-background:new 0 0 150 38;" xml:space="preserve">
<g>
	<path d="M1.52,7.69h6.47c4.95,0,8.17,3.54,8.17,9.31c0,5.8-3.25,9.31-8.2,9.31H1.52V7.69z M7.96,22.7c2.66,0,4.26-1.97,4.26-5.69
		s-1.6-5.7-4.26-5.7h-2.5V22.7H7.96z"/>
	<path d="M25.9,7.29c3.91,0,6.87,2.63,7.34,6.39l-3.83,0.61c-0.4-2.13-1.7-3.41-3.51-3.41c-2.69,0-4.28,2.29-4.28,6.12
		s1.62,6.12,4.31,6.12c2.21,0,3.49-1.28,3.51-3.49h-3.33v-3.17h7.05V19c0,4.63-2.9,7.72-7.27,7.72c-4.98,0-8.22-3.83-8.22-9.71
		C17.67,11.15,20.92,7.29,25.9,7.29z"/>
	<path d="M42.63,7.69H47l5.22,12.53h0.05l5.24-12.53h4.36v18.63h-3.86v-11.5h-0.05l-4.87,11.5h-1.7l-4.84-11.5h-0.05v11.5h-3.86
		V7.69z"/>
	<path d="M71.45,11.81c4.15,0,7,3.01,7,7.45s-2.85,7.45-7,7.45c-4.12,0-6.97-3.03-6.97-7.45C64.48,14.85,67.33,11.81,71.45,11.81z
		 M71.45,15.27c-2,0-3.17,1.46-3.17,3.99s1.17,3.99,3.17,3.99c2.02,0,3.19-1.46,3.19-3.99S73.47,15.27,71.45,15.27z"/>
	<path d="M80.55,12.21h3.62v1.25h0.05c0.83-1.04,2.32-1.65,3.89-1.65c1.54,0,2.79,0.51,3.72,1.49c0.96,0.98,1.44,2.32,1.44,3.99
		v9.02h-3.81v-8.36c0-1.68-0.93-2.63-2.55-2.63c-1.6,0-2.55,1.01-2.55,2.63v8.36h-3.81V12.21z"/>
	<path d="M100.56,15.57v5.96c0,0.88,0.35,1.14,1.44,1.14h1.54v3.65h-1.92c-3.49,0-4.87-1.28-4.87-4.55v-6.2h-2.42v-3.35h2.42V8.67
		h3.81v3.54h3.49v3.35H100.56z"/>
	<path d="M111.47,11.81c3.91,0,6.63,3.01,6.63,7.45v1.12h-9.45c0.11,2,1.17,3.14,2.9,3.14c1.38,0,2.42-0.64,3.41-2.1l2.69,2.1
		c-1.36,2.13-3.41,3.19-6.09,3.19c-3.96,0-6.73-3.01-6.73-7.45C104.82,14.88,107.59,11.81,111.47,11.81z M114.4,17.7
		c-0.13-1.7-1.17-2.69-2.9-2.69c-1.57,0-2.71,1.06-2.85,2.69H114.4z"/>
	<path d="M120.15,6.17H124V9.9h-3.86V6.17z M120.2,12.21h3.8v14.1h-3.8V12.21z"/>
	<path d="M126.64,12.21h3.57v1.25h0.05c0.64-0.96,1.68-1.52,3.03-1.52c0.67,0,1.28,0.08,1.84,0.24l-0.64,3.62
		c-0.56-0.13-1.06-0.21-1.57-0.21c-1.62,0-2.47,1.09-2.47,3.14v7.58h-3.8V12.21z"/>
	<path d="M142.23,11.81c4.15,0,7,3.01,7,7.45s-2.85,7.45-7,7.45c-4.13,0-6.97-3.03-6.97-7.45
		C135.26,14.85,138.11,11.81,142.23,11.81z M142.23,15.27c-2,0-3.17,1.46-3.17,3.99s1.17,3.99,3.17,3.99c2.02,0,3.19-1.46,3.19-3.99
		S144.25,15.27,142.23,15.27z"/>
</g>
<g>
</g>
<g>
</g>
<g>
</g>
<g>
</g>
<g>
</g>
<g>
</g>
<g>
</g>
<g>
</g>
<g>
</g>
<g>
</g>
<g>
</g>
<g>
</g>
<g>
</g>
<g>
</g>
<g>
</g>
</svg>
